<svg width="2427" height="436" viewBox="0 0 2427 436" fill="none" xmlns="http://www.w3.org/2000/svg">
<path fill-rule="evenodd" clip-rule="evenodd" d="M2195.9 411.511C2190.83 417.594 2186.78 421.64 2183.23 423.158C2180.19 425.181 2176.13 425.687 2171.58 425.687C2162.46 425.687 2154.86 422.652 2149.28 416.569C2143.68 410.486 2141.18 400.357 2141.18 386.168V346.117C2141.18 331.423 2143.68 321.293 2149.28 315.21C2154.86 309.128 2162.46 306.093 2171.58 306.093C2178.67 306.093 2184.25 308.116 2189.31 311.67C2193.87 315.21 2197.42 321.293 2199.94 329.905C2202.47 339.023 2205.02 344.6 2208.05 347.635C2213.63 353.718 2223.76 359.8 2237.97 366.376C2252.16 372.459 2267.87 375.494 2285.09 375.494C2311.94 375.494 2333.75 369.411 2350.98 356.753C2361.61 349.152 2367.19 340.035 2367.19 328.894C2367.19 321.293 2364.15 314.705 2359.08 308.116C2354.01 301.527 2345.4 295.95 2333.75 291.878C2325.65 288.843 2308.4 284.783 2281.55 279.712C2248.62 273.629 2224.28 266.535 2207.56 257.923C2190.84 249.311 2177.16 237.664 2167.53 221.958C2158.11 206.743 2153.19 189.169 2153.34 171.272C2153.34 142.894 2164.99 118.057 2188.8 96.2678C2213.12 74.9714 2244.05 64.3363 2282.04 64.3363C2297.75 64.3363 2311.94 65.8537 2325.13 69.4074C2337.8 72.4423 2349.95 78.0194 2360.59 84.608C2368.19 77.0078 2376.29 73.467 2383.89 73.467C2392.51 73.467 2399.6 76.5019 2405.2 82.5976C2410.78 88.6805 2413.82 98.8099 2413.82 112.999V158.108C2413.82 172.297 2410.78 182.426 2405.2 189.028C2399.6 194.605 2392.51 198.145 2383.89 198.145C2376.29 198.145 2370.21 195.616 2364.65 191.051C2360.6 188.016 2357.05 181.427 2355.02 171.285C2353 161.648 2350.46 154.554 2346.92 150.002C2341.34 142.907 2332.73 136.318 2321.59 131.247C2310.42 126.176 2297.24 124.153 2282.55 124.153C2260.76 124.153 2244.04 128.718 2231.38 138.861C2218.69 148.99 2212.62 159.119 2212.62 170.273C2212.62 177.874 2215.15 184.968 2220.22 191.557C2225.29 198.651 2232.89 204.228 2243.04 207.769C2249.63 210.298 2267.87 214.863 2298.77 220.946C2329.2 227.042 2353.01 233.631 2369.23 240.712C2385.44 247.794 2399.12 258.948 2410.29 274.654C2420.92 289.855 2426.5 308.116 2426.5 329.399C2426.5 358.789 2416.37 382.601 2395.57 400.357C2367.71 423.664 2332.74 435.31 2289.66 435.31C2273.44 435.31 2257.23 433.287 2241.53 429.228C2225.69 425.07 2210.39 419.127 2195.9 411.511ZM1352.1 184.968V365.883H1376.42C1392.65 365.883 1404.3 368.412 1410.89 373.989C1417.98 380.098 1421.53 387.193 1421.53 396.31C1421.53 404.922 1417.98 412.523 1410.89 418.1C1404.3 423.677 1392.65 426.206 1376.42 426.206H1288.74C1272.53 426.206 1260.88 423.677 1254.29 418.1C1247.2 412.523 1244.16 404.922 1244.16 395.805C1244.16 387.193 1247.2 380.098 1253.79 373.989C1260.88 368.412 1271.52 365.883 1285.2 365.883V128.212C1273.55 127.201 1264.94 124.153 1258.86 118.576C1252.78 112.999 1249.74 105.904 1249.74 97.7983C1249.74 88.6805 1253.28 81.5861 1260.38 76.0091C1266.96 69.9262 1278.61 67.3971 1294.34 67.3971H1367.8L1459.05 250.349L1548.72 67.3971H1622.71C1638.92 67.3971 1650.09 70.4321 1657.19 76.0091C1663.77 81.5861 1667.32 88.6805 1667.32 97.7983C1667.32 105.904 1664.28 112.999 1658.2 118.576C1652.11 124.153 1643.5 127.201 1631.86 128.212V365.883C1646.04 365.883 1656.17 368.412 1663.27 374.495C1669.86 380.098 1673.4 387.193 1673.4 396.31C1673.4 404.922 1669.86 412.523 1662.76 418.1C1656.17 423.677 1644.53 426.206 1628.29 426.206H1540.61C1524.4 426.206 1513.26 423.677 1506.17 418.1C1499.58 412.523 1496.04 404.922 1496.04 395.805C1496.04 387.193 1499.58 380.098 1506.17 373.989C1513.26 368.412 1524.4 365.883 1540.61 365.883H1564.96V184.968L1487.93 362.342H1430.15L1352.1 184.968ZM941.099 214.876H987.725C1004.96 214.876 1020.16 211.828 1033.85 206.77C1052.09 199.676 1064.25 199.17 1070.85 191.064C1076.93 183.464 1080.47 182.439 1080.47 174.852C1080.47 163.192 1074.39 152.557 1062.22 142.92C1050.06 133.296 1032.82 128.225 1009.53 128.225H941.112V214.876H941.099ZM941.099 268.597V365.896H962.396C977.09 365.896 987.22 368.425 993.302 374.002C999.385 379.579 1002.43 387.206 1002.43 396.323C1002.43 404.935 999.398 412.536 993.302 418.113C987.207 423.69 977.09 426.219 962.396 426.219H871.672C857.483 426.219 847.354 423.69 841.271 418.113C835.188 412.536 832.153 404.935 832.153 395.817C832.153 387.206 835.188 379.579 841.271 374.002C847.354 368.425 857.483 365.896 871.672 365.896H881.309V128.212H871.672C857.483 128.212 847.354 125.683 841.271 119.587C835.188 114.01 832.153 106.916 832.153 97.7983C832.153 88.6805 835.188 81.0672 841.271 75.5032C847.354 69.9392 857.483 67.3971 871.672 67.3971H1006.99C1058.67 67.3971 1140.26 87.1631 1140.26 152.531C1140.26 215.875 1129.63 212.334 1088.57 234.642C1120.48 255.42 1134.69 284.29 1137.21 365.883C1152.42 365.883 1176.23 366.895 1181.3 370.449C1189.91 376.531 1193.97 385.143 1193.97 396.31C1193.97 404.922 1190.94 412.523 1185.36 418.1C1179.28 423.677 1169.15 426.711 1154.44 426.206L1064.74 422.665C1061.71 305.107 1056.63 266.068 999.878 268.597H941.099ZM548.855 279.232V366.402H696.84V334.484C696.84 319.789 699.875 309.659 704.946 303.577C710.523 297.468 717.617 294.433 726.229 294.433C734.335 294.433 741.443 297.468 747.02 303.577C752.597 309.659 755.126 319.789 755.126 334.484V426.206H481.956C467.768 426.206 457.638 423.677 452.061 418.1C445.978 412.523 442.93 405.428 442.93 396.31C442.93 387.698 445.965 380.604 452.061 375.001C458.144 369.424 467.768 366.389 481.956 366.389H490.581V132.778H481.956C467.768 132.778 457.638 130.249 452.061 124.672C445.978 119.095 442.93 112 442.93 102.882C442.93 93.7517 445.965 86.6702 452.061 81.0802C457.638 75.5032 467.768 72.9741 481.956 72.9741H742.441V164.19C742.441 178.379 739.406 188.522 734.335 194.605C729.264 200.687 722.17 203.722 713.558 203.722C704.44 203.722 697.851 200.687 692.274 194.605C686.697 188.522 684.168 178.392 684.168 164.19V132.778H548.855V219.442H600.033L664.908 218.43L667.943 276.703L600.033 279.232H548.855ZM1868.5 279.232V366.402H2016.99V334.484C2016.99 319.789 2019.52 309.659 2024.59 303.577C2030.17 297.468 2037.26 294.433 2045.88 294.433C2054.49 294.433 2061.08 297.468 2066.68 303.577C2072.26 309.659 2074.79 319.789 2074.79 334.484V426.206H1801.63C1787.42 426.206 1777.79 423.677 1771.71 418.1C1765.63 412.523 1762.59 405.428 1762.59 396.31C1762.59 387.698 1765.63 380.604 1771.71 375.001C1777.79 369.424 1787.92 366.389 1801.63 366.389H1810.75V132.778H1801.63C1787.42 132.778 1777.79 130.249 1771.71 124.672C1765.63 119.095 1762.59 112 1762.59 102.882C1762.59 93.7517 1765.63 86.6702 1771.71 81.0802C1777.79 75.5032 1787.42 72.9741 1801.63 72.9741H2062.11V164.19C2062.11 178.379 2059.59 188.522 2053.98 194.605C2048.91 200.687 2041.82 203.722 2033.21 203.722C2024.59 203.722 2017.5 200.687 2011.92 194.605C2006.85 188.522 2003.82 178.392 2003.82 164.19V132.778H1868.5V219.442H1919.69L1984.57 218.43L1988.11 276.703L1919.69 279.232H1868.5ZM251.367 275.173H112.513V364.366H122.642C138.348 364.366 149.502 367.401 156.091 373.484C162.68 379.061 166.221 386.687 166.221 395.805C166.221 404.922 162.68 412.017 156.091 417.594C149.502 423.677 138.348 426.206 122.642 426.206H43.0856C27.885 426.206 16.744 423.677 9.63653 417.594C3.04789 412.017 0 404.416 0 395.299C0 384.158 5.07118 375.52 15.2006 368.931C20.2717 365.896 31.4128 364.366 47.625 364.366V123.141C36.4839 122.129 27.872 118.576 21.7762 113.012C16.1992 107.435 13.1643 100.34 13.1643 91.7284C13.1643 82.6106 16.718 74.9974 23.3067 69.4333C29.8953 63.8693 41.0623 60.8215 56.7687 60.8215L122.642 61.3272C138.348 61.3272 149.502 63.8563 156.091 69.4333C162.68 75.5162 166.221 82.6106 166.221 91.7284C166.221 101.365 162.68 108.965 156.091 114.529C149.502 120.093 138.348 123.141 122.642 123.141H112.513V213.359H251.367V123.141H241.238C225.531 123.141 214.377 120.106 207.789 114.529C201.2 108.952 197.659 101.352 197.659 91.7284C197.659 82.6106 201.2 74.9974 207.789 69.4333C214.377 63.8693 225.531 60.8215 241.238 60.8215L307.124 61.3272C322.83 61.3272 333.984 63.8563 340.573 69.4333C347.162 75.5162 350.702 82.6106 350.702 91.7284C350.702 100.34 347.668 107.435 342.091 113.012C336.008 118.589 327.396 122.142 316.242 123.141V364.366C332.973 364.366 343.608 366.389 348.16 368.931C358.809 375.52 363.867 384.158 363.867 395.805C363.867 404.922 360.326 412.017 353.737 417.594C347.149 423.677 335.995 426.206 320.794 426.206H241.225C225.518 426.206 214.364 423.677 207.776 417.594C201.187 412.017 197.646 404.416 197.646 395.299C197.646 386.181 201.187 379.061 207.776 373.484C214.364 367.401 225.518 364.366 241.225 364.366H251.354L251.367 275.173ZM1878.14 0.512076L1955.17 13.6893C1964.28 15.2068 1970.37 18.7605 1973.4 23.8187C1975.93 27.8653 1976.46 32.4306 1974.92 37.5018C1973.4 41.9559 1970.35 45.7252 1966.31 48.137C1962.77 50.1603 1957.19 50.6791 1949.08 49.1487L1872.06 35.9714C1862.94 34.454 1856.86 31.406 1853.82 26.3478C1851.29 21.7824 1850.79 17.2301 1852.3 12.6647C1853.82 8.11231 1856.35 4.05279 1860.92 2.01653C1864.46 0.0062201 1870.03 -0.512536 1878.14 0.512076Z" fill="black"/>
</svg>
